<svg xmlns="http://www.w3.org/2000/svg" xmlns:xlink="http://www.w3.org/1999/xlink" viewBox="0,0,256,256" width="32px" height="32px"><g fill-opacity="0" fill="#050000" fill-rule="nonzero" stroke="none" stroke-width="1" stroke-linecap="butt" stroke-linejoin="miter" stroke-miterlimit="10" stroke-dasharray="" stroke-dashoffset="0" font-family="none" font-weight="none" font-size="none" text-anchor="none" style="mix-blend-mode: normal"><path d="M0,256v-256h256v256z" id="bgRectangle"></path></g><g fill="#ffffff" fill-rule="nonzero" stroke="none" stroke-width="1" stroke-linecap="butt" stroke-linejoin="miter" stroke-miterlimit="10" stroke-dasharray="" stroke-dashoffset="0" font-family="none" font-weight="none" font-size="none" text-anchor="none" style="mix-blend-mode: normal"><g transform="scale(8,8)"><path d="M0,9v1h6v-1zM7,9v1h9.1875c0,0 -0.85937,-1 -2.21875,-1zM18,9v1h5.1875l-0.3125,-1zM26.96875,9l-0.28125,1h5.3125v-1zM0,11v1h6v-1zM7,11v1h10l-0.09375,-0.46875l-0.09375,-0.25l-0.09375,-0.1875l-0.0625,-0.09375zM18,11v1h5.78125l-0.3125,-1zM26.375,11l-0.28125,1.03125h5.90625v-1.03125zM2,13v1h2v-1zM9,13v1h2v-1zM14,13v1h2.9375l0.03125,-0.0625l0.0625,-0.25l0.03125,-0.28125l0.03125,-0.25v-0.15625zM20,13v1h4.375l-0.3125,-1zM25.78125,13l-0.28125,1h4.5v-1zM2,15v1h2v-1zM9,15v1h6.71875l0.15625,-0.09375l0.1875,-0.1875l0.125,-0.1875l0.15625,-0.1875l0.15625,-0.21875l0.0625,-0.125zM20,15v1h2v-0.90625l0.28125,0.90625h5.4375l0.28125,-0.875v0.875h2v-1h-4.8125l-0.25,0.875l-0.28125,-0.875zM2,17v1h2v-1zM9,17v1h7.5625l-0.0625,-0.125l-0.15625,-0.1875l-0.15625,-0.21875l-0.125,-0.1875l-0.1875,-0.15625l-0.15625,-0.125zM20,17v1h2v-1zM22.8125,17l0.3125,1h3.59375l0.3125,-1zM28,17v1h2v-1zM2,19v1h2v-1zM9,19v1h2v-1zM14.25,19v1h2.84375v-0.15625l-0.0625,-0.5l-0.0625,-0.25l-0.03125,-0.09375zM20,19v1h2v-1zM23.375,19l0.3125,1h2.46875l0.3125,-1zM28,19v1h2v-1zM0,21v1h6v-1zM7,21v1h9.6875l0.03125,-0.09375l0.09375,-0.21875l0.09375,-0.25l0.0625,-0.25l0.03125,-0.1875zM18,21v1h4v-1zM23.96875,21l0.3125,1h1.28125l0.3125,-1zM28,21v1h4v-1zM0,23v1h6v-1zM7,23v1h7l0.25,-0.03125l0.21875,-0.0625l0.21875,-0.03125l0.21875,-0.09375l0.1875,-0.09375l0.21875,-0.125l0.1875,-0.09375l0.5625,-0.46875zM18,23v1h4v-1zM24.5625,23l0.28125,1h0.15625l0.28125,-1zM28,23v1h4v-1z"></path></g></g></svg>